<?xml version="1.0" encoding="UTF-8"?>
<svg id="Layer_1" data-name="Layer 1" xmlns="http://www.w3.org/2000/svg" viewBox="0 0 761.19 766.36">
  <defs>
    <style>
      .cls-1 {
        fill: #fff;
      }

      .cls-1, .cls-2 {
        stroke: #231f20;
        stroke-miterlimit: 10;
        stroke-width: .5px;
      }

      .cls-2 {
        fill: none;
      }
    </style>
  </defs>
  <g>
    <g>
      <path class="cls-1" d="M413.17,1.25H.25v234h44.5v-106.42c0-5.94,4.81-10.75,10.75-10.75h357.25c5.8,0,10.5-4.7,10.5-10.5V11.33c0-5.56-4.51-10.08-10.08-10.08Z"/>
      <rect class="cls-1" x="15.63" y="20.4" width="11.23" height="15.7"/>
      <rect class="cls-1" x="15.63" y="92.4" width="11.23" height="15.7"/>
      <rect class="cls-1" x="15.63" y="56.4" width="11.23" height="15.7"/>
    </g>
    <line class="cls-2" x1="15.63" y1="64.25" x2=".25" y2="64.25"/>
    <line class="cls-2" x1="15.63" y1="100.25" x2=".25" y2="100.25"/>
    <line class="cls-2" x1="15.63" y1="28.25" x2=".25" y2="28.25"/>
    <rect class="cls-1" x="15.63" y="164.4" width="11.23" height="15.7"/>
    <rect class="cls-1" x="15.63" y="128.4" width="11.23" height="15.7"/>
    <rect class="cls-1" x="15.63" y="200.4" width="11.23" height="15.7"/>
    <line class="cls-2" x1="15.63" y1="136.25" x2=".25" y2="136.25"/>
    <line class="cls-2" x1="15.63" y1="172.25" x2=".25" y2="172.25"/>
    <line class="cls-2" x1="15.63" y1="208.25" x2=".25" y2="208.25"/>
  </g>
  <g>
    <g>
      <path class="cls-1" d="M54.97,234.25h412.92V.25h-44.5v106.42c0,5.94-4.81,10.75-10.75,10.75H55.39c-5.8,0-10.5,4.7-10.5,10.5v96.25c0,5.56,4.51,10.08,10.08,10.08Z"/>
      <rect class="cls-1" x="441.28" y="199.4" width="11.23" height="15.7" transform="translate(893.78 414.5) rotate(180)"/>
      <rect class="cls-1" x="441.28" y="127.4" width="11.23" height="15.7" transform="translate(893.78 270.5) rotate(180)"/>
      <rect class="cls-1" x="441.28" y="163.4" width="11.23" height="15.7" transform="translate(893.78 342.5) rotate(180)"/>
    </g>
    <line class="cls-2" x1="452.51" y1="171.25" x2="467.89" y2="171.25"/>
    <line class="cls-2" x1="452.51" y1="135.25" x2="467.89" y2="135.25"/>
    <line class="cls-2" x1="452.51" y1="207.25" x2="467.89" y2="207.25"/>
    <rect class="cls-1" x="441.28" y="55.4" width="11.23" height="15.7" transform="translate(893.78 126.5) rotate(180)"/>
    <rect class="cls-1" x="441.28" y="91.4" width="11.23" height="15.7" transform="translate(893.78 198.5) rotate(180)"/>
    <rect class="cls-1" x="441.28" y="19.4" width="11.23" height="15.7" transform="translate(893.78 54.5) rotate(180)"/>
    <line class="cls-2" x1="452.51" y1="99.25" x2="467.89" y2="99.25"/>
    <line class="cls-2" x1="452.51" y1="63.25" x2="467.89" y2="63.25"/>
    <line class="cls-2" x1="452.51" y1="27.25" x2="467.89" y2="27.25"/>
  </g>
  <g>
    <g>
      <path class="cls-1" d="M413.17,264.45H.25v234h44.5v-106.42c0-5.94,4.81-10.75,10.75-10.75h357.25c5.8,0,10.5-4.7,10.5-10.5v-96.25c0-5.56-4.51-10.08-10.08-10.08Z"/>
      <rect class="cls-1" x="15.63" y="283.6" width="11.23" height="15.7"/>
      <rect class="cls-1" x="15.63" y="355.6" width="11.23" height="15.7"/>
      <rect class="cls-1" x="15.63" y="319.6" width="11.23" height="15.7"/>
    </g>
    <line class="cls-2" x1="15.63" y1="327.45" x2=".25" y2="327.45"/>
    <line class="cls-2" x1="15.63" y1="363.45" x2=".25" y2="363.45"/>
    <line class="cls-2" x1="15.63" y1="291.45" x2=".25" y2="291.45"/>
    <rect class="cls-1" x="15.63" y="427.6" width="11.23" height="15.7"/>
    <rect class="cls-1" x="15.63" y="391.6" width="11.23" height="15.7"/>
    <rect class="cls-1" x="15.63" y="463.6" width="11.23" height="15.7"/>
    <line class="cls-2" x1="15.63" y1="399.45" x2=".25" y2="399.45"/>
    <line class="cls-2" x1="15.63" y1="435.45" x2=".25" y2="435.45"/>
    <line class="cls-2" x1="15.63" y1="471.45" x2=".25" y2="471.45"/>
  </g>
  <g>
    <g>
      <path class="cls-1" d="M54.97,497.45h412.92v-234h-44.5v106.42c0,5.94-4.81,10.75-10.75,10.75H55.39c-5.8,0-10.5,4.7-10.5,10.5v96.25c0,5.56,4.51,10.08,10.08,10.08Z"/>
      <rect class="cls-1" x="441.28" y="462.6" width="11.23" height="15.7" transform="translate(893.78 940.9) rotate(180)"/>
      <rect class="cls-1" x="441.28" y="390.6" width="11.23" height="15.7" transform="translate(893.78 796.9) rotate(180)"/>
      <rect class="cls-1" x="441.28" y="426.6" width="11.23" height="15.7" transform="translate(893.78 868.9) rotate(180)"/>
    </g>
    <line class="cls-2" x1="452.51" y1="434.45" x2="467.89" y2="434.45"/>
    <line class="cls-2" x1="452.51" y1="398.45" x2="467.89" y2="398.45"/>
    <line class="cls-2" x1="452.51" y1="470.45" x2="467.89" y2="470.45"/>
    <rect class="cls-1" x="441.28" y="318.6" width="11.23" height="15.7" transform="translate(893.78 652.9) rotate(180)"/>
    <rect class="cls-1" x="441.28" y="354.6" width="11.23" height="15.7" transform="translate(893.78 724.9) rotate(180)"/>
    <rect class="cls-1" x="441.28" y="282.6" width="11.23" height="15.7" transform="translate(893.78 580.9) rotate(180)"/>
    <line class="cls-2" x1="452.51" y1="362.45" x2="467.89" y2="362.45"/>
    <line class="cls-2" x1="452.51" y1="326.45" x2="467.89" y2="326.45"/>
    <line class="cls-2" x1="452.51" y1="290.45" x2="467.89" y2="290.45"/>
  </g>
  <g>
    <g>
      <path class="cls-1" d="M413.17,532.11H.25v234h44.5v-106.42c0-5.94,4.81-10.75,10.75-10.75h357.25c5.8,0,10.5-4.7,10.5-10.5v-96.25c0-5.56-4.51-10.08-10.08-10.08Z"/>
      <rect class="cls-1" x="15.63" y="551.26" width="11.23" height="15.7"/>
      <rect class="cls-1" x="15.63" y="623.26" width="11.23" height="15.7"/>
      <rect class="cls-1" x="15.63" y="587.26" width="11.23" height="15.7"/>
    </g>
    <line class="cls-2" x1="15.63" y1="595.11" x2=".25" y2="595.11"/>
    <line class="cls-2" x1="15.63" y1="631.11" x2=".25" y2="631.11"/>
    <line class="cls-2" x1="15.63" y1="559.11" x2=".25" y2="559.11"/>
    <rect class="cls-1" x="15.63" y="695.26" width="11.23" height="15.7"/>
    <rect class="cls-1" x="15.63" y="659.26" width="11.23" height="15.7"/>
    <rect class="cls-1" x="15.63" y="731.26" width="11.23" height="15.7"/>
    <line class="cls-2" x1="15.63" y1="667.11" x2=".25" y2="667.11"/>
    <line class="cls-2" x1="15.63" y1="703.11" x2=".25" y2="703.11"/>
    <line class="cls-2" x1="15.63" y1="739.11" x2=".25" y2="739.11"/>
  </g>
  <g>
    <g>
      <path class="cls-1" d="M54.97,765.11h412.92v-234h-44.5v106.42c0,5.94-4.81,10.75-10.75,10.75H55.39c-5.8,0-10.5,4.7-10.5,10.5v96.25c0,5.56,4.51,10.08,10.08,10.08Z"/>
      <rect class="cls-1" x="441.28" y="730.26" width="11.23" height="15.7" transform="translate(893.78 1476.21) rotate(180)"/>
      <rect class="cls-1" x="441.28" y="658.26" width="11.23" height="15.7" transform="translate(893.78 1332.21) rotate(180)"/>
      <rect class="cls-1" x="441.28" y="694.26" width="11.23" height="15.7" transform="translate(893.78 1404.21) rotate(180)"/>
    </g>
    <line class="cls-2" x1="452.51" y1="702.11" x2="467.89" y2="702.11"/>
    <line class="cls-2" x1="452.51" y1="666.11" x2="467.89" y2="666.11"/>
    <line class="cls-2" x1="452.51" y1="738.11" x2="467.89" y2="738.11"/>
    <rect class="cls-1" x="441.28" y="586.26" width="11.23" height="15.7" transform="translate(893.78 1188.21) rotate(180)"/>
    <rect class="cls-1" x="441.28" y="622.26" width="11.23" height="15.7" transform="translate(893.78 1260.21) rotate(180)"/>
    <rect class="cls-1" x="441.28" y="550.26" width="11.23" height="15.7" transform="translate(893.78 1116.21) rotate(180)"/>
    <line class="cls-2" x1="452.51" y1="630.11" x2="467.89" y2="630.11"/>
    <line class="cls-2" x1="452.51" y1="594.11" x2="467.89" y2="594.11"/>
    <line class="cls-2" x1="452.51" y1="558.11" x2="467.89" y2="558.11"/>
  </g>
  <g>
    <g>
      <path class="cls-1" d="M759.94,413.35V.43h-234v44.5h106.42c5.94,0,10.75,4.81,10.75,10.75v357.25c0,5.8,4.7,10.5,10.5,10.5h96.25c5.56,0,10.08-4.51,10.08-10.08Z"/>
      <rect class="cls-1" x="727.32" y="13.58" width="11.23" height="15.7" transform="translate(754.37 -711.51) rotate(90)"/>
      <rect class="cls-1" x="655.32" y="13.58" width="11.23" height="15.7" transform="translate(682.37 -639.51) rotate(90)"/>
      <rect class="cls-1" x="691.32" y="13.58" width="11.23" height="15.7" transform="translate(718.37 -675.51) rotate(90)"/>
    </g>
    <line class="cls-2" x1="696.94" y1="15.81" x2="696.94" y2=".43"/>
    <line class="cls-2" x1="660.94" y1="15.81" x2="660.94" y2=".43"/>
    <line class="cls-2" x1="732.94" y1="15.81" x2="732.94" y2=".43"/>
    <rect class="cls-1" x="583.32" y="13.58" width="11.23" height="15.7" transform="translate(610.37 -567.51) rotate(90)"/>
    <rect class="cls-1" x="619.32" y="13.58" width="11.23" height="15.7" transform="translate(646.37 -603.51) rotate(90)"/>
    <rect class="cls-1" x="547.32" y="13.58" width="11.23" height="15.7" transform="translate(574.37 -531.51) rotate(90)"/>
    <line class="cls-2" x1="624.94" y1="15.81" x2="624.94" y2=".43"/>
    <line class="cls-2" x1="588.94" y1="15.81" x2="588.94" y2=".43"/>
    <line class="cls-2" x1="552.94" y1="15.81" x2="552.94" y2=".43"/>
  </g>
  <g>
    <g>
      <path class="cls-1" d="M526.94,55.15v412.92h234v-44.5h-106.42c-5.94,0-10.75-4.81-10.75-10.75V55.57c0-5.8-4.7-10.5-10.5-10.5h-96.25c-5.56,0-10.08,4.51-10.08,10.08Z"/>
      <rect class="cls-1" x="548.32" y="439.22" width="11.23" height="15.7" transform="translate(106.87 1001.01) rotate(-90)"/>
      <rect class="cls-1" x="620.32" y="439.22" width="11.23" height="15.7" transform="translate(178.87 1073.01) rotate(-90)"/>
      <rect class="cls-1" x="584.32" y="439.22" width="11.23" height="15.7" transform="translate(142.87 1037.01) rotate(-90)"/>
    </g>
    <line class="cls-2" x1="589.94" y1="452.69" x2="589.94" y2="468.07"/>
    <line class="cls-2" x1="625.94" y1="452.69" x2="625.94" y2="468.07"/>
    <line class="cls-2" x1="553.94" y1="452.69" x2="553.94" y2="468.07"/>
    <rect class="cls-1" x="692.32" y="439.22" width="11.23" height="15.7" transform="translate(250.87 1145.01) rotate(-90)"/>
    <rect class="cls-1" x="656.32" y="439.22" width="11.23" height="15.7" transform="translate(214.87 1109.01) rotate(-90)"/>
    <rect class="cls-1" x="728.32" y="439.22" width="11.23" height="15.7" transform="translate(286.87 1181.01) rotate(-90)"/>
    <line class="cls-2" x1="661.94" y1="452.69" x2="661.94" y2="468.07"/>
    <line class="cls-2" x1="697.94" y1="452.69" x2="697.94" y2="468.07"/>
    <line class="cls-2" x1="733.94" y1="452.69" x2="733.94" y2="468.07"/>
  </g>
</svg>